<svg width="116" height="98" viewBox="0 0 116 98" fill="none" xmlns="http://www.w3.org/2000/svg">
<path fill-rule="evenodd" clip-rule="evenodd" d="M78.1364 92.3151C82.437 92.4376 86.6902 92.5966 90.9921 92.5937C91.9176 92.5965 92.663 91.8524 92.6628 90.9329C92.6655 90.0074 91.9155 89.2589 90.996 89.2591C86.718 89.2587 82.5007 89.1022 78.23 88.9793C77.3072 88.9556 76.5404 89.6821 76.5136 90.596C76.4899 91.5188 77.2136 92.2914 78.1364 92.3151Z" fill="#17151D"/>
<path fill-rule="evenodd" clip-rule="evenodd" d="M61.2542 60.9941C71.7595 52.3655 81.8223 43.2114 92.1367 34.3644C92.8363 33.7611 92.915 32.7092 92.3177 32.0125C91.7144 31.3129 90.6655 31.2283 89.9599 31.8287C79.6663 40.6634 69.6244 49.8054 59.1367 58.4128C58.422 59.0014 58.3222 60.0505 58.9047 60.7623C59.4933 61.477 60.5424 61.5767 61.2542 60.9941Z" fill="#17151D"/>
<path fill-rule="evenodd" clip-rule="evenodd" d="M18.6216 36.8154C21.9218 25.8068 24.9191 14.6887 28.3422 3.71727C28.6113 2.83902 28.1214 1.90521 27.246 1.63013C26.3647 1.35215 25.428 1.84806 25.1529 2.7234C21.73 13.7098 18.7269 24.8399 15.4268 35.8635C15.1638 36.7446 15.6625 37.6754 16.5437 37.9385C17.4309 38.2045 18.3556 37.7026 18.6216 36.8154Z" fill="#17151D"/>
</svg>
