<svg width="203" height="203" viewBox="0 0 203 203" fill="none" xmlns="http://www.w3.org/2000/svg">
<path d="M64.0231 160.897C65.5551 155.299 66.7336 150.526 68.1773 145.841C70.5933 137.887 73.3333 130.138 78.9607 123.685C84.6765 117.145 91.8065 114.67 99.9677 117.056C104.976 118.53 109.573 121.358 114.257 123.744C116.084 124.687 117.675 126.16 120.179 127.958C119.236 123.479 118.441 119.973 117.793 116.438C116.172 107.805 114.198 99.2314 113.167 90.5399C111.694 78.6369 117.704 71.5069 129.725 70.4462C134.439 70.0338 139.3 70.7703 144.103 71.0355C145.547 71.1239 146.961 71.4185 148.67 71.6542C144.25 64.5832 139.949 57.9246 135.942 51.1481C126.602 35.3266 137.12 25.6923 149.789 24.0424C153.177 23.6004 156.742 23.9834 160.19 24.3075C162.488 24.6022 164.373 26.0753 164.02 28.6091C163.725 30.9072 161.663 31.5554 159.482 31.6143C157.332 31.7027 155.151 31.6438 153.06 31.9679C150.614 32.3509 148.139 32.7634 145.812 33.6178C139.271 36.0337 137.326 40.0996 140.096 46.5225C142.041 51.0597 144.663 55.3318 147.196 59.5745C149.554 63.5225 152.117 67.3821 154.68 71.2417C155.976 73.2452 157.214 75.3076 155.976 77.6646C154.562 80.3752 151.881 80.169 149.406 79.9922C146.254 79.786 143.16 79.1083 140.008 79.0788C136.03 78.9905 132.023 78.9905 128.134 79.5208C122.86 80.2574 120.798 82.5554 120.827 87.8882C120.857 92.9853 121.181 98.2002 122.035 103.238C123.921 114.022 126.16 124.687 128.429 135.382C128.959 137.916 128.93 140.067 126.72 141.569C124.628 143.013 122.625 142.129 120.768 140.744C117.469 138.27 114.228 135.618 110.81 133.32C107.805 131.316 104.682 129.313 101.382 127.899C92.5725 124.098 86.6799 125.984 81.1704 133.791C77.0161 139.654 74.1288 146.136 72.0664 152.971C70.5638 157.892 69.3853 162.9 68.0889 167.85C67.4113 170.472 66.7042 173.183 63.4338 173.566C60.3402 173.89 58.6903 171.651 57.1877 169.382C56.569 168.41 56.0976 167.349 55.5967 166.318C54.6244 164.226 53.5048 162.164 52.7388 159.984C46.9347 143.809 34.2656 138.387 18.4441 138.181C15.5273 138.152 12.581 139.036 9.66423 139.595C8.22055 139.861 6.80634 140.568 5.36266 140.656C4.33147 140.744 2.76994 140.42 2.35746 139.713C1.88605 138.947 2.23961 137.415 2.5637 136.502C3.30026 134.528 5.30375 132.878 7.13044 132.112C10.7544 130.609 14.614 129.283 18.4736 128.9C27.0178 128.017 35.2968 129.755 43.2813 132.966C50.0872 135.706 54.6834 140.833 57.9243 147.197C59.9867 151.381 61.6955 155.682 64.0231 160.897Z" fill="black"/>
</svg>
