<svg width="21" height="30" viewBox="0 0 21 30" fill="none" xmlns="http://www.w3.org/2000/svg">
<g clip-path="url(#clip0_3_261)">
<path d="M8.12932 1.73721e-07C5.51855 1.73721e-07 3.38739 2.09733 3.38739 4.66667C3.38739 7.236 5.51855 9.33333 8.12932 9.33333C9.24586 9.33312 10.3263 8.9439 11.1791 8.23467C12.0307 8.94417 13.1103 9.33347 14.2261 9.33333C16.8369 9.33333 18.968 7.236 18.968 4.66667C18.968 2.09733 16.8369 1.73721e-07 14.2261 1.73721e-07C13.111 -0.000192932 12.0318 0.388604 11.1804 1.09733C10.327 0.388434 9.24612 -0.000300008 8.12932 1.73721e-07ZM8.12932 1.33333C8.949 1.33333 9.68536 1.63 10.27 2.104C9.75713 2.86362 9.48356 3.75533 9.48356 4.66733C9.48356 5.57934 9.75713 6.47104 10.27 7.23067C9.66986 7.72568 8.91236 7.99792 8.12932 8C6.25016 8 4.74223 6.516 4.74223 4.66667C4.74223 2.81733 6.25016 1.33333 8.12932 1.33333ZM14.2261 1.33333C16.1046 1.33333 17.6132 2.818 17.6132 4.66667C17.6132 6.51533 16.1046 8 14.2261 8C12.3476 8 10.839 6.51533 10.839 4.66667C10.839 2.818 12.3476 1.33333 14.2261 1.33333ZM2.82513 10.6667C1.38697 10.6667 0.0815828 11.7293 0.00435695 13.1913C-0.063385 14.4827 0.826067 15.5927 2.03255 15.9047V29.3333C2.03255 29.5101 2.10392 29.6797 2.23096 29.8047C2.358 29.9298 2.53031 30 2.70997 30C2.88963 30 3.06194 29.9298 3.18898 29.8047C3.31602 29.6797 3.38739 29.5101 3.38739 29.3333V16H10.3513L11.5503 19.544C11.5953 19.6769 11.6817 19.7925 11.7972 19.8744C11.9127 19.9562 12.0515 20.0002 12.1938 20H18.2906C19.0473 20 19.6455 20.5887 19.6455 21.3333C19.6455 22.078 19.0473 22.6667 18.2906 22.6667H11.6207C11.5619 22.6572 11.5019 22.6554 11.4426 22.6613H11.4385C11.0488 22.6473 10.6715 22.5231 10.3517 22.3036C10.0319 22.084 9.78313 21.7784 9.63523 21.4233C9.62242 21.3923 9.60725 21.3622 9.58984 21.3333L7.35503 17.6573C7.3111 17.5788 7.25155 17.5099 7.17992 17.4545C7.10829 17.3992 7.02606 17.3587 6.93814 17.3353C6.85023 17.312 6.75843 17.3063 6.66824 17.3187C6.57805 17.331 6.49132 17.3611 6.41323 17.4072C6.33514 17.4533 6.26729 17.5144 6.21375 17.5869C6.1602 17.6594 6.12205 17.7418 6.10158 17.8291C6.08111 17.9164 6.07874 18.0069 6.09461 18.0951C6.11048 18.1834 6.14426 18.2676 6.19394 18.3427L8.42671 22.018C8.64596 22.5014 8.97916 22.9264 9.39869 23.2578C9.81821 23.5892 10.312 23.8173 10.839 23.9233V29.3333C10.839 29.5101 10.9104 29.6797 11.0374 29.8047C11.1645 29.9298 11.3368 30 11.5164 30C11.6961 30 11.8684 29.9298 11.9954 29.8047C12.1225 29.6797 12.1938 29.5101 12.1938 29.3333V24H18.2906C18.768 23.997 19.2359 23.8681 19.6455 23.6267V29.3333C19.6455 29.5101 19.7168 29.6797 19.8439 29.8047C19.9709 29.9298 20.1432 30 20.3229 30C20.5025 30 20.6748 29.9298 20.8019 29.8047C20.9289 29.6797 21.0003 29.5101 21.0003 29.3333V15.3333C21.0003 12.764 18.8691 10.6667 16.2584 10.6667H2.82513ZM2.82513 12H16.2584C18.1375 12 19.6455 13.484 19.6455 15.3333V19.04C19.2359 18.7985 18.768 18.6696 18.2906 18.6667H12.6816L11.7799 16H14.2261C14.4058 16 14.5781 15.9298 14.7051 15.8047C14.8321 15.6797 14.9035 15.5101 14.9035 15.3333C14.9035 15.1565 14.8321 14.987 14.7051 14.8619C14.5781 14.7369 14.4058 14.6667 14.2261 14.6667H10.946C10.8725 14.6546 10.7974 14.6546 10.7238 14.6667H2.81429C2.75968 14.6578 2.70417 14.6556 2.649 14.66C2.46986 14.6542 2.29372 14.6131 2.13103 14.539C1.96834 14.465 1.82241 14.3596 1.70188 14.229C1.58135 14.0985 1.48867 13.9454 1.42934 13.779C1.37001 13.6125 1.34524 13.436 1.35649 13.26C1.39374 12.5593 2.06303 12 2.82513 12Z" fill="black"/>
</g>
<defs>
<clipPath id="clip0_3_261">
<rect width="21" height="30" fill="white"/>
</clipPath>
</defs>
</svg>
