<svg width="74" height="68" viewBox="0 0 74 68" fill="none" xmlns="http://www.w3.org/2000/svg">
<path fill-rule="evenodd" clip-rule="evenodd" d="M60.4333 65.3644V19.6861H70.3V65.3644H60.4333ZM41.9333 65.3644V29.5625H51.8V65.3644H41.9333ZM23.4333 65.3644V39.4389H33.3V65.3644H23.4333ZM4.93333 65.3644V50.5498H14.8V65.3644H4.93333ZM72.7666 65.3644V17.217H57.9667V65.3644H54.2667V27.0934H39.4667V65.3644H35.7667V36.9698H20.9667V65.3644H17.2667V48.0807H2.46666V65.3644H1.23333C0.55253 65.3644 0 65.9162 0 66.5989C0 67.2817 0.55253 67.8335 1.23333 67.8335H2.46666H17.2667H20.9667H35.7667H39.4667H54.2667H57.9667H72.7666C73.4475 67.8335 74 67.2817 74 66.5989C74 65.9162 73.4475 65.3644 72.7666 65.3644Z" fill="black"/>
<path fill-rule="evenodd" clip-rule="evenodd" d="M9.87893 31.1509C10.0868 31.1509 10.2995 31.098 10.4926 30.9861L55.096 5.23417L52.3044 11.3708C52.0227 11.9894 52.2958 12.7187 52.9143 12.9991C53.0791 13.0753 53.2525 13.1098 53.4235 13.1098C53.8908 13.1098 54.3372 12.8417 54.5438 12.3891L58.9244 2.75982C58.9379 2.72908 58.9354 2.69587 58.9465 2.6639C58.9699 2.59872 58.9883 2.536 59.0006 2.46714C59.0068 2.43271 59.0264 2.40441 59.0289 2.36875C59.0301 2.35399 59.024 2.3417 59.0252 2.32694C59.0277 2.28021 59.0228 2.23717 59.0203 2.19043C59.0166 2.12279 59.0055 2.05884 58.9908 1.99121C58.9809 1.94448 58.9785 1.89652 58.9625 1.85102C58.9477 1.80675 58.9219 1.76985 58.9022 1.7268C58.8862 1.69852 58.8862 1.66531 58.869 1.6358C58.8518 1.60629 58.8223 1.58907 58.8026 1.56078C58.7768 1.52266 58.7571 1.48207 58.7264 1.44764C58.6944 1.41075 58.6538 1.38492 58.6169 1.35172C58.5665 1.30622 58.5161 1.26441 58.4595 1.22751C58.4214 1.20291 58.387 1.17586 58.3451 1.15495C58.3316 1.1488 58.3242 1.1365 58.3107 1.13035C58.28 1.11682 58.2468 1.11928 58.216 1.10821C58.1484 1.08361 58.082 1.0664 58.0119 1.0541C57.9799 1.04795 57.9541 1.02949 57.9209 1.02703L47.3914 0.00631009C46.7088 -0.0625609 46.1136 0.436736 46.0484 1.11067C45.982 1.78706 46.4776 2.38842 47.1528 2.45361L53.8626 3.10416L9.26283 28.8561C8.67376 29.1955 8.4733 29.9481 8.81272 30.536C9.04023 30.9307 9.45344 31.1509 9.87896 31.1509H9.87893Z" fill="black"/>
</svg>
