<svg width="49" height="42" viewBox="0 0 49 42" fill="none" xmlns="http://www.w3.org/2000/svg">
<path fill-rule="evenodd" clip-rule="evenodd" d="M6.98249 0.388009C5.20754 1.42607 3.44149 2.44075 1.68745 3.54515C0.202349 4.48174 -0.419154 6.81927 0.297999 8.7588C1.01515 10.6983 2.80209 11.5101 4.28719 10.5735C5.99043 9.50033 7.7056 8.51687 9.42976 7.50612C10.9358 6.62416 11.608 4.31391 10.9327 2.34706C10.2574 0.384114 8.48851 -0.493951 6.98249 0.388009Z" fill="#FFCB3C"/>
<path fill-rule="evenodd" clip-rule="evenodd" d="M18.7737 14.0155C16.2159 21.2507 13.9388 28.6498 11.5005 35.9513C10.8401 37.926 11.5335 40.2284 13.0455 41.0909C14.5575 41.9494 16.3174 41.048 16.9778 39.0733C19.4011 31.8225 21.6572 24.4741 24.2001 17.2897C24.8903 15.3345 24.236 13.0125 22.739 12.1111C21.2419 11.2057 19.464 12.0604 18.7737 14.0155Z" fill="#FFCB3C"/>
<path fill-rule="evenodd" clip-rule="evenodd" d="M40.4882 17.5823C41.304 24.2048 42.2631 30.8117 43.0191 37.4459C43.2641 39.5727 44.7851 41.044 46.4166 40.7279C48.0482 40.4079 49.1747 38.4215 48.9326 36.2908C48.1677 29.6292 47.2085 22.9951 46.3898 16.3413C46.1268 14.2145 44.5939 12.7667 42.9654 13.1101C41.3369 13.4496 40.2253 15.4555 40.4882 17.5823Z" fill="#FFCB3C"/>
</svg>
