<svg width="74" height="55" viewBox="0 0 74 55" fill="none" xmlns="http://www.w3.org/2000/svg">
<path fill-rule="evenodd" clip-rule="evenodd" d="M67.8301 44.4C67.1494 44.4 66.5969 43.8475 66.5969 43.1667V3.70001C66.5969 3.02168 66.0444 2.46668 65.3637 2.46668H8.63629C7.95557 2.46668 7.40309 3.02168 7.40309 3.70001V43.1667C7.40309 43.8475 6.85062 44.4 6.16989 44.4C5.48916 44.4 4.93669 43.8475 4.93669 43.1667V3.70001C4.93669 1.66008 6.59659 1e-05 8.6363 1e-05H65.3637C67.4035 1e-05 69.0633 1.66008 69.0633 3.70001V43.1667C69.0633 43.8475 68.5109 44.4 67.8301 44.4H67.8301Z" fill="white"/>
<path fill-rule="evenodd" clip-rule="evenodd" d="M67.8333 54.2634H6.16667C2.76514 54.2634 0 51.4982 0 48.0967C0 47.4159 0.55253 46.8634 1.23333 46.8634H28.3667C29.0475 46.8634 29.6 47.4159 29.6 48.0967C29.6 48.7775 29.0475 49.33 28.3667 49.33H2.67879C3.18692 50.7656 4.55839 51.7967 6.16666 51.7967H67.8333C69.4416 51.7967 70.8131 50.7656 71.3212 49.33H45.6333C44.9525 49.33 44.4 48.7775 44.4 48.0967C44.4 47.4159 44.9525 46.8634 45.6333 46.8634H72.7667C73.4475 46.8634 74 47.4159 74 48.0967C74 51.4982 71.2349 54.2634 67.8333 54.2634Z" fill="white"/>
<path fill-rule="evenodd" clip-rule="evenodd" d="M25.896 35.2666C25.6075 35.2666 25.319 35.1655 25.0847 34.9608L15.2217 26.3293C14.9529 26.0951 14.8 25.7597 14.8 25.4021C14.8 25.0445 14.9529 24.7091 15.2217 24.4748L25.0847 15.8434C25.5951 15.3921 26.3718 15.4414 26.8255 15.9593C27.2743 16.4722 27.2225 17.2491 26.7097 17.6979L17.9044 25.4021L26.7072 33.1063C27.2201 33.5551 27.2718 34.3319 26.8231 34.8449C26.579 35.1236 26.2387 35.2666 25.8959 35.2666L25.896 35.2666Z" fill="white"/>
<path fill-rule="evenodd" clip-rule="evenodd" d="M33.298 37.7399C33.1697 37.7399 33.0389 37.7202 32.9081 37.6783C32.2615 37.4611 31.9135 36.7628 32.1282 36.1164L39.5321 13.9093C39.7468 13.2629 40.4403 12.91 41.0918 13.1296C41.7385 13.3468 42.0864 14.045 41.8717 14.6915L34.4678 36.8985C34.2951 37.4118 33.8138 37.7399 33.298 37.7399Z" fill="white"/>
<path fill-rule="evenodd" clip-rule="evenodd" d="M48.0974 35.2667C47.7544 35.2667 47.4139 35.1237 47.1697 34.845C46.7206 34.3321 46.7724 33.5553 47.2856 33.1065L56.0938 25.4027L47.2856 17.6989C46.7724 17.2501 46.7206 16.4733 47.1697 15.9604C47.6187 15.4425 48.3984 15.3956 48.9116 15.8445L58.7806 24.4755C59.0471 24.7097 59.2001 25.0451 59.2001 25.4027C59.2001 25.7603 59.0471 26.0956 58.7782 26.3299L48.9091 34.9609C48.6747 35.1656 48.386 35.2667 48.0974 35.2667H48.0974Z" fill="white"/>
</svg>
